<?xml version="1.0" encoding="utf-8"?>
<!-- Generator: Adobe Illustrator 23.0.0, SVG Export Plug-In . SVG Version: 6.00 Build 0)  -->
<svg version="1.1"
	 id="Layer_1" inkscape:version="0.92.4 (unknown)" sodipodi:docname="logo.svg" xmlns:cc="http://creativecommons.org/ns#" xmlns:dc="http://purl.org/dc/elements/1.1/" xmlns:inkscape="http://www.inkscape.org/namespaces/inkscape" xmlns:rdf="http://www.w3.org/1999/02/22-rdf-syntax-ns#" xmlns:sodipodi="http://sodipodi.sourceforge.net/DTD/sodipodi-0.dtd" xmlns:svg="http://www.w3.org/2000/svg"
	 xmlns="http://www.w3.org/2000/svg" xmlns:xlink="http://www.w3.org/1999/xlink" x="0px" y="0px" viewBox="0 0 34.3 54.4"
	 style="enable-background:new 0 0 34.3 54.4;" xml:space="preserve">
<style type="text/css">
	.st0{font-family:'ArialMT';}
	.st1{font-size:80px;}
	.st2{letter-spacing:-4;}
	.st3{fill:#FFFFFF;}
</style>
<sodipodi:namedview  bordercolor="#666666" borderopacity="1" gridtolerance="10" guidetolerance="10" id="namedview29" inkscape:current-layer="Layer_1" inkscape:cx="91.245395" inkscape:cy="5.3594976" inkscape:pageopacity="0" inkscape:pageshadow="2" inkscape:window-height="480" inkscape:window-width="640" inkscape:zoom="5.1221719" objecttolerance="10" pagecolor="#ffffff" showgrid="false">
	</sodipodi:namedview>
<text transform="matrix(1 0 0 1 -95.4286 53.063)" class="st0 st1 st2">co</text>
<text transform="matrix(1 0 0 1 -8.8706 53.063)" class="st0 st1 st2">u</text>
<text transform="matrix(1 0 0 1 36.0094 53.063)" class="st0 st1 st2">n</text>
<text transform="matrix(1 0 0 1 80.7294 53.063)" class="st0 st1" style="letter-spacing:-2;">t</text>
<text transform="matrix(1 0 0 1 108.9684 53.063)" class="st0 st1" style="letter-spacing:-2;">.</text>
<g id="g61" transform="matrix(0.56216998,0,0,0.56216998,-271.74001,20.209365)">
	<path id="path195" inkscape:connector-curvature="0" class="st3" d="M483.4,23.7L526-18.9v-17L483.4,6.7V23.7"/>
	<path id="path197" inkscape:connector-curvature="0" class="st3" d="M483.4,60.8L526,18.1V4.4L483.4,47V60.8"/>
	<path id="path199" inkscape:connector-curvature="0" class="st3" d="M501.8,23.7l42.6-42.6v-14.3L501.8,9.4V23.7"/>
	<path id="path201" inkscape:connector-curvature="0" class="st3" d="M544.5,3.8l-42.6,42.6v14.3l42.6-42.6V3.8"/>
</g>
</svg>
